<?xml version="1.0" encoding="UTF-8" standalone="no"?>
<svg
   viewBox="0 0 797.5 962.5"
   version="1.2"
   width="79.75mm"
   height="96.25mm"
   id="svg44"
   sodipodi:docname="Contour.svg"
   inkscape:version="1.3 (0e150ed6c4, 2023-07-21)"
   xmlns:inkscape="http://www.inkscape.org/namespaces/inkscape"
   xmlns:sodipodi="http://sodipodi.sourceforge.net/DTD/sodipodi-0.dtd"
   xmlns="http://www.w3.org/2000/svg"
   xmlns:svg="http://www.w3.org/2000/svg"
   xmlns:rdf="http://www.w3.org/1999/02/22-rdf-syntax-ns#"
   xmlns:cc="http://creativecommons.org/ns#"
   xmlns:dc="http://purl.org/dc/elements/1.1/">
  <sodipodi:namedview
     id="namedview44"
     pagecolor="#505050"
     bordercolor="#eeeeee"
     borderopacity="1"
     inkscape:showpageshadow="0"
     inkscape:pageopacity="0"
     inkscape:pagecheckerboard="0"
     inkscape:deskcolor="#505050"
     inkscape:document-units="mm"
     inkscape:zoom="1.4699824"
     inkscape:cx="184.01581"
     inkscape:cy="158.84544"
     inkscape:window-width="1920"
     inkscape:window-height="1017"
     inkscape:window-x="1912"
     inkscape:window-y="-8"
     inkscape:window-maximized="1"
     inkscape:current-layer="Page002" />
  <title
     id="title1">FreeCAD SVG Export</title>
  <desc
     id="desc1">Drawing page: Page002 exported from FreeCAD document: motorisation_pami</desc>
  <defs
     id="defs1" />
  <g
     id="Page002"
     inkscape:groupmode="layer"
     inkscape:label="TechDraw"
     transform="translate(-51.808,-37.162)">
    <path
       id="path43"
       style="font-style:normal;font-weight:400;font-size:29.1042px;font-family:'MS Shell Dlg 2';fill:none;stroke:#000000;stroke-width:2.5;stroke-linecap:round;stroke-linejoin:bevel;stroke-opacity:1"
       d="m 524.058,518.412 c 0,8.83656 -7.1634,16 -16,16 -8.8366,0 -16,-7.16344 -16,-16 0,-8.83656 7.1634,-16 16,-16 8.8366,0 16,7.16344 16,16 m -420,0 c 0,8.83656 -7.163,16 -16,16 -8.837,0 -16,-7.16344 -16,-16 0,-8.83656 7.163,-16 16,-16 8.837,0 16,7.16344 16,16 m 633,-168 c -80.726,0 -150.039,57.415 -165.064,136.7304 M 828.058,350.412 h -91 M 571.994,487.1424 c -0.735,3.8792 -2.602,7.4541 -5.365,10.2743 M 848.058,330.412 c 0,11.046 -8.954,20 -20,20 M 566.629,497.4167 c -11.428,11.66413 -11.428,30.32647 0,41.9906 M 848.058,206.696 V 330.412 M 566.629,539.4073 c 2.763,2.8202 4.63,6.3951 5.365,10.2743 M 842.2,192.554 c 3.751,3.751 5.858,8.838 5.858,14.142 M 571.994,549.6816 C 587.019,628.997 656.332,686.412 737.058,686.412 M 763.916,114.27 842.2,192.554 M 737.058,686.412 h 91 m -78.284,-578 c 5.304,0 10.391,2.107 14.142,5.858 m 64.142,572.142 c 11.046,0 20,8.954 20,20 m -226,-598 h 127.716 m 98.284,598 v 123.716 m -246,-741.716 c 0,11.046 8.954,20 20,20 m 226,721.716 c 0,5.304 -2.107,10.391 -5.858,14.142 M 602.058,58.412 v 30 M 842.2,844.27 763.916,922.554 M 582.058,38.412 c 11.046,0 20,8.954 20,20 m 161.858,864.142 c -3.751,3.751 -8.838,5.858 -14.142,5.858 m -595.716,-890 h 428 m 167.716,890 H 622.058 m -488,-870 c 0,-11.046 8.954,-20 20,-20 m 468,890 c -11.046,0 -20,8.954 -20,20 m -468,-605 v -285 m 468,890 v 30 m -488,-615 c 11.046,0 20,-8.954 20,-20 m 468,635 c 0,11.046 -8.954,20 -20,20 m -509,-635 h 41 m 468,635 h -428 m -101,-615 c 0,-11.046 8.954,-20 20,-20 m 81,635 c -11.046,0 -20,-8.954 -20,-20 m -81,-325 v -270 m 81,310 v 285 m -61,-305 c -11.046,0 -20,-8.954 -20,-20 m 61,20 c 11.046,0 20,8.954 20,20 m -20,-20 h -41" />
  </g>
  <metadata
     id="metadata44">
    <rdf:RDF>
      <cc:Work
         rdf:about="">
        <dc:title>FreeCAD SVG Export</dc:title>
      </cc:Work>
    </rdf:RDF>
  </metadata>
</svg>
