<?xml version="1.0" encoding="UTF-8" standalone="no"?>
<svg
   viewBox="0 0 797.5 962.5"
   height="96.25mm"
   version="1.2"
   width="79.75mm"
   id="svg42"
   sodipodi:docname="Contour.svg"
   inkscape:version="1.3 (0e150ed6c4, 2023-07-21)"
   xmlns:inkscape="http://www.inkscape.org/namespaces/inkscape"
   xmlns:sodipodi="http://sodipodi.sourceforge.net/DTD/sodipodi-0.dtd"
   xmlns="http://www.w3.org/2000/svg"
   xmlns:svg="http://www.w3.org/2000/svg">
  <sodipodi:namedview
     id="namedview42"
     pagecolor="#505050"
     bordercolor="#eeeeee"
     borderopacity="1"
     inkscape:showpageshadow="0"
     inkscape:pageopacity="0"
     inkscape:pagecheckerboard="0"
     inkscape:deskcolor="#505050"
     inkscape:document-units="mm"
     inkscape:zoom="1.9149817"
     inkscape:cx="174.4142"
     inkscape:cy="160.05375"
     inkscape:window-width="1920"
     inkscape:window-height="1017"
     inkscape:window-x="1912"
     inkscape:window-y="-8"
     inkscape:window-maximized="1"
     inkscape:current-layer="Page002" />
  <title
     id="title1">FreeCAD SVG Export</title>
  <desc
     id="desc1">Drawing page: Page002 exported from FreeCAD document: motorisation_pami</desc>
  <defs
     id="defs1" />
  <g
     id="Page002"
     inkscape:label="TechDraw"
     inkscape:groupmode="layer"
     transform="translate(-14.301,-9.525)">
    <path
       id="path41"
       style="font-style:normal;font-weight:400;font-size:29.1042px;font-family:'MS Shell Dlg 2';fill:none;stroke:#ff0000;stroke-width:2.5;stroke-linecap:round;stroke-linejoin:bevel;stroke-opacity:1"
       d="m 486.551,490.775 c 0,8.83656 -7.1634,16 -16,16 -8.8366,0 -16,-7.16344 -16,-16 0,-8.83656 7.1634,-16 16,-16 8.8366,0 16,7.16344 16,16 m -420,0 c 0,8.83656 -7.163,16 -16,16 -8.837,0 -16,-7.16344 -16,-16 0,-8.83656 7.163,-16 16,-16 8.837,0 16,7.16344 16,16 m 314,0 c 0,27.6142 -22.3858,50 -50,50 -27.614,0 -50,-22.3858 -50,-50 0,-27.6142 22.386,-50 50,-50 27.6142,0 50,22.3858 50,50 m 319,-168 c -80.726,0 -150.039,57.415 -165.064,136.7304 M 790.551,322.775 h -91 M 534.487,459.5054 c -0.735,3.8792 -2.602,7.4541 -5.365,10.2743 M 810.551,302.775 c 0,11.046 -8.954,20 -20,20 M 529.122,469.7797 c -11.428,11.66413 -11.428,30.32647 0,41.9906 M 810.551,179.059 V 302.775 M 529.122,511.7703 c 2.763,2.8202 4.63,6.3951 5.365,10.2743 M 804.693,164.917 c 3.751,3.751 5.858,8.838 5.858,14.142 M 534.487,522.0446 C 549.512,601.36 618.825,658.775 699.551,658.775 m 26.858,-572.142 78.284,78.284 M 699.551,658.775 h 91 m -78.284,-578 c 5.304,0 10.391,2.107 14.142,5.858 m 64.142,572.142 c 11.046,0 20,8.954 20,20 m -226,-598 h 127.716 m 98.284,598 v 123.716 m -246,-741.716 c 0,11.046 8.954,20 20,20 m 226,721.716 c 0,5.304 -2.107,10.391 -5.858,14.142 M 564.551,30.775 v 30 m 240.142,755.858 -78.284,78.284 M 544.551,10.775 c 11.046,0 20,8.954 20,20 m 161.858,864.142 c -3.751,3.751 -8.838,5.858 -14.142,5.858 m -595.716,-890 h 428 m 167.716,890 H 584.551 m -488,-870 c 0,-11.046 8.954,-20 20,-20 m 468,890 c -11.046,0 -20,8.954 -20,20 m -468,-605 v -285 m 468,890 v 30 m -488,-615 c 11.046,0 20,-8.954 20,-20 m 468,635 c 0,11.046 -8.954,20 -20,20 m -509,-635 h 41 m 468,635 h -428 m -101,-615 c 0,-11.046 8.954,-20 20,-20 m 81,635 c -11.046,0 -20,-8.954 -20,-20 m -81,-325 v -270 m 81,310 v 285 m -61,-305 c -11.046,0 -20,-8.954 -20,-20 m 61,20 c 11.046,0 20,8.954 20,20 m -20,-20 h -41" />
  </g>
</svg>
